<svg width="24" height="16" viewBox="0 0 24 16" fill="none" xmlns="http://www.w3.org/2000/svg">
<path d="M11.6923 5.23071C10.9578 5.23071 10.2535 5.52247 9.73412 6.0418C9.21479 6.56113 8.92303 7.2655 8.92303 7.99994C8.92303 8.73439 9.21479 9.43875 9.73412 9.95809C10.2535 10.4774 10.9578 10.7692 11.6923 10.7692C12.4267 10.7692 13.1311 10.4774 13.6504 9.95809C14.1697 9.43875 14.4615 8.73439 14.4615 7.99994C14.4615 7.2655 14.1697 6.56113 13.6504 6.0418C13.1311 5.52247 12.4267 5.23071 11.6923 5.23071Z" fill="#7F7F7F"/>
<path fill-rule="evenodd" clip-rule="evenodd" d="M11.6923 0C8.47015 0 5.57292 1.29354 3.48554 2.896C2.43938 3.69846 1.58154 4.58954 0.979692 5.456C0.388923 6.30769 0 7.20123 0 8C0 8.79877 0.390154 9.69231 0.979692 10.5428C1.58277 11.4105 2.43938 12.3015 3.48554 13.1028C5.57292 14.7077 8.47015 16 11.6923 16C14.9145 16 17.8117 14.7065 19.8991 13.104C20.9452 12.3015 21.8031 11.4105 22.4037 10.544C22.9945 9.69231 23.3846 8.79877 23.3846 8C23.3846 7.20123 22.9945 6.30769 22.4037 5.45723C21.8031 4.58954 20.9452 3.69846 19.8991 2.89723C17.8117 1.29231 14.9145 0 11.6923 0ZM7.07692 8C7.07692 6.77592 7.56318 5.60198 8.42874 4.73643C9.29429 3.87088 10.4682 3.38462 11.6923 3.38462C12.9164 3.38462 14.0903 3.87088 14.9559 4.73643C15.8214 5.60198 16.3077 6.77592 16.3077 8C16.3077 9.22408 15.8214 10.398 14.9559 11.2636C14.0903 12.1291 12.9164 12.6154 11.6923 12.6154C10.4682 12.6154 9.29429 12.1291 8.42874 11.2636C7.56318 10.398 7.07692 9.22408 7.07692 8Z" fill="#7F7F7F"/>
</svg>
